<?xml version="1.0" encoding="UTF-8" standalone="no"?>
<!DOCTYPE svg PUBLIC "-//W3C//DTD SVG 1.1//EN"
 "http://www.w3.org/Graphics/SVG/1.1/DTD/svg11.dtd">
<!-- Generated by graphviz version 2.47.3 (20210619.1520)
 -->
<!-- Title: dependencies Pages: 1 -->
<svg width="2252pt" height="247pt"
 viewBox="0.00 0.00 2252.00 246.80" xmlns="http://www.w3.org/2000/svg" xmlns:xlink="http://www.w3.org/1999/xlink">
<g id="graph0" class="graph" transform="scale(1 1) rotate(0) translate(4 242.8)">
<title>dependencies</title>
<polygon fill="white" stroke="transparent" points="-4,4 -4,-242.8 2248,-242.8 2248,4 -4,4"/>
<text text-anchor="middle" x="1122" y="-8.2" font-family="sans-serif" font-size="14.00">dependencies</text>
<g id="clust1" class="cluster">
<title>cluster_AppModule</title>
<polygon fill="none" stroke="black" stroke-dasharray="1,5" points="8,-32.8 8,-230.8 2236,-230.8 2236,-32.8 8,-32.8"/>
</g>
<g id="clust17" class="cluster">
<title>cluster_AppModule_imports</title>
<polygon fill="none" stroke="black" points="2084,-40.8 2084,-92.8 2228,-92.8 2228,-40.8 2084,-40.8"/>
</g>
<g id="clust19" class="cluster">
<title>cluster_AppModule_bootstrap</title>
<polygon fill="none" stroke="black" points="1132,-170.8 1132,-222.8 1256,-222.8 1256,-170.8 1132,-170.8"/>
</g>
<g id="clust2" class="cluster">
<title>cluster_AppModule_declarations</title>
<polygon fill="none" stroke="black" points="16,-40.8 16,-92.8 2076,-92.8 2076,-40.8 16,-40.8"/>
</g>
<!-- AlertasComponent -->
<g id="node1" class="node">
<title>AlertasComponent</title>
<polygon fill="#ffffb3" stroke="black" points="2067.75,-84.8 1946.25,-84.8 1946.25,-48.8 2067.75,-48.8 2067.75,-84.8"/>
<text text-anchor="middle" x="2007" y="-62.6" font-family="Times,serif" font-size="14.00">AlertasComponent</text>
</g>
<!-- AppModule -->
<g id="node15" class="node">
<title>AppModule</title>
<polygon fill="#8dd3c7" stroke="black" points="1235.66,-149.8 1232.66,-153.8 1211.66,-153.8 1208.66,-149.8 1152.34,-149.8 1152.34,-113.8 1235.66,-113.8 1235.66,-149.8"/>
<text text-anchor="middle" x="1194" y="-127.6" font-family="Times,serif" font-size="14.00">AppModule</text>
</g>
<!-- AlertasComponent&#45;&gt;AppModule -->
<g id="edge1" class="edge">
<title>AlertasComponent&#45;&gt;AppModule</title>
<path fill="none" stroke="black" d="M2007,-85.09C2007,-107.01 2007,-140.8 2007,-140.8 2007,-140.8 1245.72,-140.8 1245.72,-140.8"/>
<polygon fill="black" stroke="black" points="1245.72,-137.3 1235.72,-140.8 1245.72,-144.3 1245.72,-137.3"/>
</g>
<!-- AppComponent -->
<g id="node2" class="node">
<title>AppComponent</title>
<polygon fill="#ffffb3" stroke="black" points="1927.94,-84.8 1822.06,-84.8 1822.06,-48.8 1927.94,-48.8 1927.94,-84.8"/>
<text text-anchor="middle" x="1875" y="-62.6" font-family="Times,serif" font-size="14.00">AppComponent</text>
</g>
<!-- AppComponent&#45;&gt;AppModule -->
<g id="edge2" class="edge">
<title>AppComponent&#45;&gt;AppModule</title>
<path fill="none" stroke="black" d="M1875,-84.83C1875,-105.57 1875,-136.8 1875,-136.8 1875,-136.8 1245.83,-136.8 1245.83,-136.8"/>
<polygon fill="black" stroke="black" points="1245.83,-133.3 1235.83,-136.8 1245.83,-140.3 1245.83,-133.3"/>
</g>
<!-- CadastrarComponent -->
<g id="node3" class="node">
<title>CadastrarComponent</title>
<polygon fill="#ffffb3" stroke="black" points="1804.47,-84.8 1669.53,-84.8 1669.53,-48.8 1804.47,-48.8 1804.47,-84.8"/>
<text text-anchor="middle" x="1737" y="-62.6" font-family="Times,serif" font-size="14.00">CadastrarComponent</text>
</g>
<!-- CadastrarComponent&#45;&gt;AppModule -->
<g id="edge3" class="edge">
<title>CadastrarComponent&#45;&gt;AppModule</title>
<path fill="none" stroke="black" d="M1737,-84.91C1737,-104.14 1737,-131.8 1737,-131.8 1737,-131.8 1245.71,-131.8 1245.71,-131.8"/>
<polygon fill="black" stroke="black" points="1245.71,-128.3 1235.71,-131.8 1245.71,-135.3 1245.71,-128.3"/>
</g>
<!-- EntrarComponent -->
<g id="node4" class="node">
<title>EntrarComponent</title>
<polygon fill="#ffffb3" stroke="black" points="1651.31,-84.8 1534.69,-84.8 1534.69,-48.8 1651.31,-48.8 1651.31,-84.8"/>
<text text-anchor="middle" x="1593" y="-62.6" font-family="Times,serif" font-size="14.00">EntrarComponent</text>
</g>
<!-- EntrarComponent&#45;&gt;AppModule -->
<g id="edge4" class="edge">
<title>EntrarComponent&#45;&gt;AppModule</title>
<path fill="none" stroke="black" d="M1593,-85.1C1593,-103.07 1593,-127.8 1593,-127.8 1593,-127.8 1245.95,-127.8 1245.95,-127.8"/>
<polygon fill="black" stroke="black" points="1245.95,-124.3 1235.95,-127.8 1245.95,-131.3 1245.95,-124.3"/>
</g>
<!-- HomeComponent -->
<g id="node5" class="node">
<title>HomeComponent</title>
<polygon fill="#ffffb3" stroke="black" points="1516.55,-84.8 1401.45,-84.8 1401.45,-48.8 1516.55,-48.8 1516.55,-84.8"/>
<text text-anchor="middle" x="1459" y="-62.6" font-family="Times,serif" font-size="14.00">HomeComponent</text>
</g>
<!-- HomeComponent&#45;&gt;AppModule -->
<g id="edge5" class="edge">
<title>HomeComponent&#45;&gt;AppModule</title>
<path fill="none" stroke="black" d="M1459,-84.83C1459,-101.2 1459,-122.8 1459,-122.8 1459,-122.8 1245.7,-122.8 1245.7,-122.8"/>
<polygon fill="black" stroke="black" points="1245.7,-119.3 1235.7,-122.8 1245.7,-126.3 1245.7,-119.3"/>
</g>
<!-- InicioComponent -->
<g id="node6" class="node">
<title>InicioComponent</title>
<polygon fill="#ffffb3" stroke="black" points="1382.99,-84.8 1269.01,-84.8 1269.01,-48.8 1382.99,-48.8 1382.99,-84.8"/>
<text text-anchor="middle" x="1326" y="-62.6" font-family="Times,serif" font-size="14.00">InicioComponent</text>
</g>
<!-- InicioComponent&#45;&gt;AppModule -->
<g id="edge6" class="edge">
<title>InicioComponent&#45;&gt;AppModule</title>
<path fill="none" stroke="black" d="M1326,-84.99C1326,-99.98 1326,-118.8 1326,-118.8 1326,-118.8 1245.77,-118.8 1245.77,-118.8"/>
<polygon fill="black" stroke="black" points="1245.77,-115.3 1235.77,-118.8 1245.77,-122.3 1245.77,-115.3"/>
</g>
<!-- MenuComponent -->
<g id="node7" class="node">
<title>MenuComponent</title>
<polygon fill="#ffffb3" stroke="black" points="1250.99,-84.8 1137.01,-84.8 1137.01,-48.8 1250.99,-48.8 1250.99,-84.8"/>
<text text-anchor="middle" x="1194" y="-62.6" font-family="Times,serif" font-size="14.00">MenuComponent</text>
</g>
<!-- MenuComponent&#45;&gt;AppModule -->
<g id="edge7" class="edge">
<title>MenuComponent&#45;&gt;AppModule</title>
<path fill="none" stroke="black" d="M1194,-84.91C1194,-84.91 1194,-103.79 1194,-103.79"/>
<polygon fill="black" stroke="black" points="1190.5,-103.79 1194,-113.79 1197.5,-103.79 1190.5,-103.79"/>
</g>
<!-- PostagemDeleteComponent -->
<g id="node8" class="node">
<title>PostagemDeleteComponent</title>
<polygon fill="#ffffb3" stroke="black" points="1119.3,-84.8 946.7,-84.8 946.7,-48.8 1119.3,-48.8 1119.3,-84.8"/>
<text text-anchor="middle" x="1033" y="-62.6" font-family="Times,serif" font-size="14.00">PostagemDeleteComponent</text>
</g>
<!-- PostagemDeleteComponent&#45;&gt;AppModule -->
<g id="edge8" class="edge">
<title>PostagemDeleteComponent&#45;&gt;AppModule</title>
<path fill="none" stroke="black" d="M1033,-84.99C1033,-99.98 1033,-118.8 1033,-118.8 1033,-118.8 1142.12,-118.8 1142.12,-118.8"/>
<polygon fill="black" stroke="black" points="1142.12,-122.3 1152.12,-118.8 1142.12,-115.3 1142.12,-122.3"/>
</g>
<!-- PostagemEditComponent -->
<g id="node9" class="node">
<title>PostagemEditComponent</title>
<polygon fill="#ffffb3" stroke="black" points="928.6,-84.8 769.4,-84.8 769.4,-48.8 928.6,-48.8 928.6,-84.8"/>
<text text-anchor="middle" x="849" y="-62.6" font-family="Times,serif" font-size="14.00">PostagemEditComponent</text>
</g>
<!-- PostagemEditComponent&#45;&gt;AppModule -->
<g id="edge9" class="edge">
<title>PostagemEditComponent&#45;&gt;AppModule</title>
<path fill="none" stroke="black" d="M849,-84.83C849,-101.2 849,-122.8 849,-122.8 849,-122.8 1142.04,-122.8 1142.04,-122.8"/>
<polygon fill="black" stroke="black" points="1142.04,-126.3 1152.04,-122.8 1142.04,-119.3 1142.04,-126.3"/>
</g>
<!-- RodapeComponent -->
<g id="node10" class="node">
<title>RodapeComponent</title>
<polygon fill="#ffffb3" stroke="black" points="751.1,-84.8 626.9,-84.8 626.9,-48.8 751.1,-48.8 751.1,-84.8"/>
<text text-anchor="middle" x="689" y="-62.6" font-family="Times,serif" font-size="14.00">RodapeComponent</text>
</g>
<!-- RodapeComponent&#45;&gt;AppModule -->
<g id="edge10" class="edge">
<title>RodapeComponent&#45;&gt;AppModule</title>
<path fill="none" stroke="black" d="M689,-85.1C689,-103.07 689,-127.8 689,-127.8 689,-127.8 1142.24,-127.8 1142.24,-127.8"/>
<polygon fill="black" stroke="black" points="1142.24,-131.3 1152.24,-127.8 1142.24,-124.3 1142.24,-131.3"/>
</g>
<!-- TemaComponent -->
<g id="node11" class="node">
<title>TemaComponent</title>
<polygon fill="#ffffb3" stroke="black" points="608.7,-84.8 495.3,-84.8 495.3,-48.8 608.7,-48.8 608.7,-84.8"/>
<text text-anchor="middle" x="552" y="-62.6" font-family="Times,serif" font-size="14.00">TemaComponent</text>
</g>
<!-- TemaComponent&#45;&gt;AppModule -->
<g id="edge11" class="edge">
<title>TemaComponent&#45;&gt;AppModule</title>
<path fill="none" stroke="black" d="M552,-84.91C552,-104.14 552,-131.8 552,-131.8 552,-131.8 1141.88,-131.8 1141.88,-131.8"/>
<polygon fill="black" stroke="black" points="1141.88,-135.3 1151.88,-131.8 1141.88,-128.3 1141.88,-135.3"/>
</g>
<!-- TemaDeleteComponent -->
<g id="node12" class="node">
<title>TemaDeleteComponent</title>
<polygon fill="#ffffb3" stroke="black" points="477.74,-84.8 328.26,-84.8 328.26,-48.8 477.74,-48.8 477.74,-84.8"/>
<text text-anchor="middle" x="403" y="-62.6" font-family="Times,serif" font-size="14.00">TemaDeleteComponent</text>
</g>
<!-- TemaDeleteComponent&#45;&gt;AppModule -->
<g id="edge12" class="edge">
<title>TemaDeleteComponent&#45;&gt;AppModule</title>
<path fill="none" stroke="black" d="M403,-84.83C403,-105.57 403,-136.8 403,-136.8 403,-136.8 1142.31,-136.8 1142.31,-136.8"/>
<polygon fill="black" stroke="black" points="1142.31,-140.3 1152.31,-136.8 1142.31,-133.3 1142.31,-140.3"/>
</g>
<!-- TemaEditComponent -->
<g id="node13" class="node">
<title>TemaEditComponent</title>
<polygon fill="#ffffb3" stroke="black" points="310.04,-84.8 173.96,-84.8 173.96,-48.8 310.04,-48.8 310.04,-84.8"/>
<text text-anchor="middle" x="242" y="-62.6" font-family="Times,serif" font-size="14.00">TemaEditComponent</text>
</g>
<!-- TemaEditComponent&#45;&gt;AppModule -->
<g id="edge13" class="edge">
<title>TemaEditComponent&#45;&gt;AppModule</title>
<path fill="none" stroke="black" d="M242,-85.09C242,-107.01 242,-140.8 242,-140.8 242,-140.8 1142.17,-140.8 1142.17,-140.8"/>
<polygon fill="black" stroke="black" points="1142.17,-144.3 1152.17,-140.8 1142.17,-137.3 1142.17,-144.3"/>
</g>
<!-- UserEditComponent -->
<g id="node14" class="node">
<title>UserEditComponent</title>
<polygon fill="#ffffb3" stroke="black" points="155.59,-84.8 24.41,-84.8 24.41,-48.8 155.59,-48.8 155.59,-84.8"/>
<text text-anchor="middle" x="90" y="-62.6" font-family="Times,serif" font-size="14.00">UserEditComponent</text>
</g>
<!-- UserEditComponent&#45;&gt;AppModule -->
<g id="edge14" class="edge">
<title>UserEditComponent&#45;&gt;AppModule</title>
<path fill="none" stroke="black" d="M90,-85.12C90,-108.46 90,-145.8 90,-145.8 90,-145.8 1142.07,-145.8 1142.07,-145.8"/>
<polygon fill="black" stroke="black" points="1142.07,-149.3 1152.07,-145.8 1142.07,-142.3 1142.07,-149.3"/>
</g>
<!-- AppComponent  -->
<g id="node17" class="node">
<title>AppComponent </title>
<polygon fill="#80b1d3" stroke="black" points="1248.44,-214.8 1139.56,-214.8 1139.56,-178.8 1248.44,-178.8 1248.44,-214.8"/>
<text text-anchor="middle" x="1194" y="-192.6" font-family="Times,serif" font-size="14.00">AppComponent </text>
</g>
<!-- AppModule&#45;&gt;AppComponent  -->
<g id="edge16" class="edge">
<title>AppModule&#45;&gt;AppComponent </title>
<path fill="none" stroke="black" stroke-dasharray="1,5" d="M1194,-149.91C1194,-149.91 1194,-168.79 1194,-168.79"/>
<polygon fill="black" stroke="black" points="1190.5,-168.79 1194,-178.79 1197.5,-168.79 1190.5,-168.79"/>
</g>
<!-- AppRoutingModule -->
<g id="node16" class="node">
<title>AppRoutingModule</title>
<polygon fill="#8dd3c7" stroke="black" points="2220.27,-84.8 2217.27,-88.8 2196.27,-88.8 2193.27,-84.8 2091.73,-84.8 2091.73,-48.8 2220.27,-48.8 2220.27,-84.8"/>
<text text-anchor="middle" x="2156" y="-62.6" font-family="Times,serif" font-size="14.00">AppRoutingModule</text>
</g>
<!-- AppRoutingModule&#45;&gt;AppModule -->
<g id="edge15" class="edge">
<title>AppRoutingModule&#45;&gt;AppModule</title>
<path fill="none" stroke="black" d="M2156,-85.12C2156,-108.46 2156,-145.8 2156,-145.8 2156,-145.8 1245.95,-145.8 1245.95,-145.8"/>
<polygon fill="black" stroke="black" points="1245.95,-142.3 1235.95,-145.8 1245.95,-149.3 1245.95,-142.3"/>
</g>
</g>
</svg>
